/* XPM */
static char *_ea69443ea6d447af24c20385420d2f2ZhYaOUIPZt6AGT1f[] = {
/* columns rows colors chars-per-pixel */
"64 64 2 1 ",
"  c None",
". c black",
/* pixels */
"                                                                ",
"                                                                ",
"                                                                ",
"                                                                ",
"                                                                ",
"                                                                ",
"                                                                ",
"       ..................................................       ",
"       ..................................................       ",
"       ..................................................       ",
"       ..................................................       ",
"       ..................................................       ",
"       ..................................................       ",
"       ..................................................       ",
"       ..................................................       ",
"       ..................................................       ",
"       ..................................................       ",
"       ..................................................       ",
"       ..................................................       ",
"       ..................................................       ",
"       ..................................................       ",
"       ..................................................       ",
"       ..................................................       ",
"       ..................................................       ",
"       ..................................................       ",
"       ..................................................       ",
"       ..................................................       ",
"       ..................................................       ",
"       ..................................................       ",
"       ..................................................       ",
"       ..................................................       ",
"       ..................................................       ",
"       ..................................................       ",
"       ..................................................       ",
"       ..................................................       ",
"       ..................................................       ",
"       ..................................................       ",
"       ..................................................       ",
"       ..................................................       ",
"       ..................................................       ",
"       ..................................................       ",
"       ..................................................       ",
"       ..................................................       ",
"       ..................................................       ",
"       ..................................................       ",
"       ..................................................       ",
"       ..................................................       ",
"       ..................................................       ",
"       ..................................................       ",
"       ..................................................       ",
"       ..................................................       ",
"       ..................................................       ",
"       ..................................................       ",
"       ..................................................       ",
"       ..................................................       ",
"       ..................................................       ",
"       ..................................................       ",
"                                                                ",
"                                                                ",
"                                                                ",
"                                                                ",
"                                                                ",
"                                                                ",
"                                                                "
};
