/* XPM */
static char *_9ea0a45ad9541e6d2846dd943cd6b87rHMXEk8yImNviy96[] = {
/* columns rows colors chars-per-pixel */
"64 64 179 2 ",
"   c #3E0A6C",
".  c #3C0773",
"X  c #3E0873",
"o  c #3E077A",
"O  c #3F0878",
"+  c #41076E",
"@  c #420B6E",
"#  c #410774",
"$  c #430A74",
"%  c #480F74",
"&  c #44067D",
"*  c #440A7B",
"=  c #490E7C",
"-  c #4B1277",
";  c #4C117C",
":  c #531977",
">  c #52177F",
",  c #54197A",
"<  c #450682",
"1  c #480786",
"2  c #460884",
"3  c #4B0C84",
"4  c #46068B",
"5  c #4A078B",
"6  c #470888",
"7  c #4C0B8B",
"8  c #510E8D",
"9  c #4E1083",
"0  c #4F1088",
"q  c #531683",
"w  c #53118B",
"e  c #59168E",
"r  c #4C0791",
"t  c #4E0992",
"y  c #510795",
"u  c #530C94",
"i  c #580E96",
"p  c #550C9A",
"a  c #590E9D",
"s  c #561293",
"d  c #591494",
"f  c #5B129C",
"g  c #60159F",
"h  c #570BA0",
"j  c #5D0EA2",
"k  c #5E11A2",
"l  c #600FA6",
"z  c #610FA9",
"x  c #6010A7",
"c  c #6111A7",
"v  c #6111A6",
"b  c #6311A6",
"n  c #6211A7",
"m  c #6212A7",
"M  c #6011A5",
"N  c #6413A7",
"B  c #6212A5",
"V  c #6816A7",
"C  c #661AA4",
"Z  c #691BA6",
"A  c #6110A8",
"S  c #6212A8",
"D  c #6212A9",
"F  c #6312A9",
"G  c #6412A8",
"H  c #6413A8",
"J  c #6512A9",
"K  c #6513A9",
"L  c #6612A9",
"P  c #6513AA",
"I  c #6612AA",
"U  c #6514A8",
"Y  c #6514A9",
"T  c #6614A9",
"R  c #6614AA",
"E  c #6614AB",
"W  c #6714AB",
"Q  c #6715AB",
"!  c #6714AC",
"~  c #6714AD",
"^  c #6715AC",
"/  c #6513AA",
"(  c #6815AB",
")  c #6816AB",
"_  c #6816AA",
"`  c #6814AD",
"'  c #6915AD",
"]  c #6A17AD",
"[  c #6B17AD",
"{  c #6A16AC",
"}  c #6915AE",
"|  c #6B15AE",
" . c #6B15AF",
".. c #6B17AE",
"X. c #6A16AF",
"o. c #6C15AF",
"O. c #6C17AF",
"+. c #6A15AD",
"@. c #6C18AF",
"#. c #6D18AF",
"$. c #6C1BAC",
"%. c #6D17B0",
"&. c #6D17B1",
"*. c #6D18B0",
"=. c #6D19B1",
"-. c #6E18B1",
";. c #6E19B1",
":. c #6F19B2",
">. c #6F18B2",
",. c #6E19B1",
"<. c #7019B3",
"1. c #701BB2",
"2. c #711CB3",
"3. c #721CB3",
"4. c #721CB4",
"5. c #721CB4",
"6. c #761FB8",
"7. c #781EB9",
"8. c #6F20AC",
"9. c #7122AE",
"0. c #7521B5",
"q. c #7925B7",
"w. c #7721B8",
"e. c #7721B8",
"r. c #7921BA",
"t. c #7A22BA",
"y. c #7A22BB",
"u. c #7B23BB",
"i. c #7B22BC",
"p. c #7D24BD",
"a. c #7F25BD",
"s. c #7F27BD",
"d. c #7E27BD",
"f. c #7F25BE",
"g. c #7F27BE",
"h. c #7B23BB",
"j. c #7F29BD",
"k. c #8027BF",
"l. c #8127BF",
"z. c #8026BF",
"x. c #8027BE",
"c. c #8029BF",
"v. c #8129BF",
"b. c #8128BF",
"n. c #8129BE",
"m. c #8430BF",
"M. c #8026C0",
"N. c #8228C0",
"B. c #8329C1",
"V. c #832BC1",
"C. c #832BC0",
"Z. c #842AC1",
"A. c #842AC2",
"S. c #892EC4",
"D. c #8A2EC8",
"F. c #8631C0",
"G. c #8B33C6",
"H. c #8F3AC7",
"J. c #8F3AC7",
"K. c #8E34C9",
"L. c #8F39C8",
"P. c #9036C9",
"I. c #903BC8",
"U. c #913BC9",
"Y. c #913CC8",
"T. c #933DCB",
"R. c #923CCA",
"E. c #943ECB",
"W. c #953FCC",
"Q. c #953ECC",
"!. c #933CCA",
"~. c #983FCE",
"^. c #9540CC",
"/. c #9640CD",
"(. c #9641CD",
"). c #9942CE",
"_. c #9E4AD1",
"`. c #A14DD3",
"'. c #A451D5",
/* pixels */
"5 5 5 y I ^ ^ ~ ' &.o.o.z z n z k n n k 7 6 7 5 u w u s ^ ^ Y Y f u a u 3 3 9 3 h k k k i.M.f.y.p p p u = ; ; ; = = 2 9 u p p p ",
"5 t 7 y I ^ ~ ~ o.o.o.` z n z k n B n k 7 5 6 6 u u u u k ^ Y Y p a a u 3 3 2 3 k h h k i.i.f.r.f p f u ; ; ; ; = 3 = ; u p p p ",
"5 7 5 5 I ^ I ` o.o.o.o.D j k z n n n k 5 4 7 5 u i s u Y ^ ^ ^ f u a u 3 9 2 9 j h j j i.f.f.r.a a p p ; ; ; ; = = = 3 y p p p ",
"y y y u ^ ' ' ` ` &.o.o.D D D D n n n n 7 6 6 5 7 w u 8 ^ ^ k k u a a u 2 2 = 3 a j j j r.r.r.r.u u a u ; ; ; ; 3 3 3 3 p p p p ",
"Y.Y.Y.J.n.x.x.x.Y I Y ^ g.j.B.j.=.=.=.' O . O . * * * * p p a p 0 u 7 w $ $ $ $ y y y y r r r 5 7 0 7 0 7 t w 7 y 5 y 5 y p y y ",
"/./.).T.Z.n.B.M.' Y Y Y B.B.B.j.=.=.<.o.O . . . O * O * p p p u 7 0 w 0 $ X $ X 8 t t t 7 4 7 4 6 6 3 3 t 8 t u y t t t p p y p ",
"^.T./.T.Z.B.Z.x.Y I I Y c.V.B.j.:.=.:.=.O . . . * O $ * u u f u w 0 7 0 $ X X $ t y t t 4 4 5 6 7 7 3 3 8 t u t 8 t r y p y y y ",
"T.T.T.T.x.x.x.x.] Y ^ ] j.j.B.c.] ] =.) O . . . * * * * u h a a 7 s s w % X O * y y t r 7 r t 5 3 7 7 7 7 8 7 8 y t y r p p p p ",
"y.y.y.r.&.&.' =.T.T.T.Y.#._ ' _ 9 3 7 2 X X . . y y y y &.:.=.=.4.4.4.3.p u p p k z k z I I I z 7 3 7 3 $ + # $ u u u p ] =.=.=.",
"6.6.r.6.' ' ^ =.T.).).T.o._ ' I 2 2 2 2 . . . . y p y p =.2.2.2.6.4.6.4.h p p h j k k z ` V V z 7 0 7 7 $   @ + y i u p =.=.1.=.",
"6.i.w.w.&.^ ' =.T.).).~.o.` ' I 3 2 3 < . . . . y y y p =.2.4.:.4.4.4.4.f p p p k z z z _ I I N 3 7 0 3 @ +   # u p u a &.2.1.&.",
"6.6.6.6.&.^ ^ =.T.T.T.J._ I _ N 3 2 < < . . . . p a p a &.2.=.=.6.4.6.4.h p p p z z k z o._ o.U 8 3 7 7 $   + X u u u u &.&.1.&.",
"k f f k Y ] ^ ' =.=.=.#.w 0 w 3 = = % = y p p p 7.l.x.z.] ^ ' =.=.=.2.&.i u s s j j k n H.T.^.H.N j z a 3 = 3 3 $ $ $ % j B j l ",
"f f f f Y Y Y ' ' ' ' Y 0 9 0 9 % = % = p h p p l.Z.n.n.=.^ ] ' &.2.:.&.u s t s k j f B ^.^.^.T.I j l l 2 3 3 3 $ X X # a l B a ",
"f f f f Y ' ' Y ] ' ] ' w 9 9 9 = % = = p p p a n.A.n.n.] ^ ] ] 2.>.>.&.s t s u k k k B J.^.^.T.l l l l 3 3 3 3 $ O # # a k a l ",
"f f f f Y ' ' _ &.#.' ' 0 9 0 9 = % $ * y p y a n.A.A.n.=.] =.9.<.2.2.>.u s 8 s k k j k ^.).).^.l l l a 3 < = 3 $ X # $ a l l l ",
"q 0 9 9 k k k k q q e q = % % = i a p k 4.6.e.3.1.=.=.#.e e e e f f f f 8 3 7 7 3 w w w $.$.$.$.<.>.>.>.B B g g 3 = = 3 = 3 3 = ",
"9 9 ; 9 f k k d - - ; - % % % = z z A ~ n.B.n.x.Y Y Y U q q q q q w e e 8 0 7 3 ; - - ; f a a a 7.7.6.6.' ` ` _ 7 3 2 3 $ $ $ $ ",
"9 9 ; 9 f f f f ; ; ; ; % % % = k D j A a.x.x.a.Y Y ^ Y q q q q d s w s 3 7 3 3 ; ; ; ; f k k B 3.6.3.3.' _ _ Y 3 3 3 3 = $ $ * ",
"9 9 9 9 f g f f ; - ; ; % $ % % j j j A z.x.x.x.' ^ ' Z q q q q s s e s w 3 7 3 ; ; ; 3 f k a k w.w.7.7._ Y Y U 3 2 = 3 $ * $ $ ",
"* < * 2 e s s 8 ; = = = i a i f n.n.n.n.#.o.=.#.e e e e q q > q q ; 9 9 7 s s 7 = = = = % $ = = f B k k t.t.t.t.V V V V ; = = $ ",
"< * < o 0 8 8 8 3 3 3 3 j z j D G.U.J.K.V z I N q q q q > > q q ; ; ; ; s u u s = = = = @ +   + y u u a j.V.B.B.6.5.6.3.; = = = ",
"& < 2 2 8 8 s 8 3 3 3 3 j D k D G.G.K.G._ I V N q q q q q > q q 9 ; ; ; u s u s = = * = @ + @ + i p a p g.B.n.g.4.4.4.=.; * = = ",
"& & 2 o 8 8 8 8 = 3 = 3 j j j n G.U.P.K.` I ` I e q q q > > ; q ; ; ; ; w u s u = * % = @ + @ + i p p f B.B.B.B.2.2.4.=.= % = $ ",
"V V V V B k B f i s i s e.t.w.e.3.6.3.3.w 0 w q 9 = = = 7 s w w w w t w a p u a u u u u & & # & = 3 = 3 Y Z Y Z M.Z.Z.x.g d a f ",
"7.7.7.7.I I I I a a p f j.V.V.n.o._ ^ Y ; ; ; 9 * = = = s u u s s s s s p p p a j j j a 1 & 1 & $ = = = a p p f Z.S.S.A.N l l B ",
"5.5.5.<.Y D Y Y a a a f g.j.j.g.=.~ =.^ 9 ; ; 9 = * = 9 8 s u i u s t s a a p p j a a a & & 1 & * = = = a f f k B.S.S.n.b k g l ",
"7.7.7.5.I I ~ Y s a a f B.V.B.M.=.&.=.^ 9 ; 9 ; = = = * s u s s t s s t y u p p h a a a & & & & * = = = p j h k Z.S.S.S.C l l g ",
"V ` V U u u t t 6 1 1 1 n N k D p p h p 7 9 3 3 0 0 w 7 3 7 3 3 b b b l a a a h _ o.#.o.B n n k * * # * 3 9 9 9 k C C C b C B B ",
"l l l B 6 6 4 7 < < < < p p h h r r t t 3 3 3 3 s u u 8 3 3 3 3 L I o.L j j j z o.1.1.1.&.' &.' = * o * O = * = s f p f g b B B ",
"N b N B 7 7 7 7 < < < < h h h h t t t t 3 3 3 3 t s 7 s 3 3 3 3 L L o.L j j a l #.1.=.=.' ^ ^ ^ * O * * ; = * 3 d f f f B B B B ",
"n l B B 7 6 7 7 < & & < h h h h t t t t 3 2 3 3 s u s t 3 3 3 3 L o.L L a l a a o.#.&.=.&.' &.' * * * o O = = ; s f d d B C g B ",
"X.X.X.X.t r t r 7 7 7 t k n k k p u u u 7 4 7 6 6 6 6 6 $ # # $ | o.o.<.t.a.w.q.S.G.G.m.V k l g 3 3 = 3 * # # # z n z l N N N N ",
"<.=.=.X.u y u u 8 7 0 0 k k n n u u u u r 4 7 r 6 6 6 6 + + + # | <.>.<.n.S.A.S.~.~.~.!.g a f a 3 3 3 3 # # # * V ` ` ` V I Y I ",
"<.<.=.=.p r t u 7 t 7 t k n k k p u p u 4 r 7 4 6 6 1 1 # + @ $ | <.>.<.n.n.n.A.!.!.!.P.k a k a 3 3 3 3 * # # # l ` ` V I Y Y Y ",
"<.<.=.=.p t t t 7 0 7 7 k k k k u t u t 7 r r 7 6 6 5 3 + + X $ [ <.>.<.A.S.A.S.!.~.~.U.k i a a 3 1 = 3 # # # # V ` ` ` Y Y Y Y ",
"h h j j t 8 t t u u p f t.p.t.y.0.=.0.$.7 7 7 3 & o o & 6 6 6 4 a a j k 7.w.7.t.7.6.6.6.[ [ [ { k a f f 6 1 1 1 a h p h y p p p ",
"h h h h 0 7 9 7 f f f f M.A.Z.A.p.y.M.e.9 3 3 3 o . o o r t 7 t a a i p 1.5.5.5.| | V | 1.3.1.1.N N Y B 5 5 5 5 y p y y y u t t ",
"a h h p 7 7 7 0 a u u k M.A.c.c.y.y.r.w.0 3 3 3 o o o o 7 r r r u a i a 5.5.5.5.o.[ >.o.3.3.>.>.b B n k 7 5 1 5 y p p p p t t t ",
"h h h h 0 7 7 7 a f a f M.A.A.A.y.w.y.w.3 2 3 < o o o o 7 r r r y a i a 5.3.7.5.| | | | o.3.>.>.n n B B 5 5 5 5 y p p p t t p y ",
"t 7 t 8 0 0 0 0 : - - - g B k C g.M.g.g.0.0.0.9.4 4 4 4 r r t t Y ' _ ' ] =.$.=.F.G.F.G.l.z.z.z.8 4 0 6 o . o o r 4 4 4 4 4 6 5 ",
"4 7 4 7 0 0 0 7 % @ @ % s s u f j.B.B.B.Z.Z.Z.x.r r r r t r t t #.1.=.=.) ] ) =.T.Q.!.!.A.Z.Z.l.7 < < 2 . . . . 4 4 4 < < < 6 < ",
"r 7 7 7 0 0 0 0 % % % % u i s d g.B.c.M.n.n.B.g.t r r r t 4 t t V <.&.=.) ] ) =.P.!.!.P.A.l.l.z.9 6 2 2 o . . . 4 4 4 4 < 6 < 6 ",
"7 7 7 7 3 9 3 6 % % @ % s a i p g.B.B.B.B.n.n.a.r 4 4 4 t t 4 u o.<.1.&.Y ) ^ ) P.!.!.!.A.Z.A.z.4 < 2 2 . . . . < 4 < 4 < 6 < < ",
"p a p f k k k k 2 * * < 0 0 0 0 B Y B ^ F.G.G.F.q.q.q.e.p y t t z z n I j.v.B.B.x.x.M.g.f u i i O . . O 6 4 7 7 =.6.9.9.s t u t ",
"f k h k =.=.=.=.6 2 6 3 9 9 9 9 p a a k G.!.L.L.G.S.G.S.y y p y j z j n G.L.K.K.y.t.t.6.5 < 1 1 . . . . t t t u d.A.V.d.p p p h ",
"j p f h =.} =.^ 6 2 6 < 9 9 9 9 k j k k G.K.L.K.F.S.F.V.h t y y j l j n S.G.G.G.i.y.y.t.7 1 1 1 . .   . t t r u d.d.d.d.h p p p ",
"j j k h ^ ) } Y 2 & < < 3 9 9 0 a j h k K.!.!.L.S.S.D.V.p r y y j z j n G.G.L.G.g.i.f.y.t 1 5 1   . . . 4 4 r r d.c.d.y.h p p p ",
"y p y a w.w.w.w.Z C ] C 7 3 3 0 7 7 5 7 8.0.9.9.F.F.G.A.l l l k D I D ^ j.V.F.V.B B B B 9 9 q q 9 7 3 7 V $.$.$.A.S.A.n.a y u p ",
"y p p p c.S.S.A.A.A.A.M.u 7 7 7 & * * & 7 7 7 s V.A.A.V.<.o.>.o.' &.' =.p.t.p.e.5 1 5 1 % ; % - u p p p B.A.A.G.K.K.G.S.i y y y ",
"y p y p j.V.B.c.M.M.M.i.u 7 s 7 * * & * s s u d n.A.A.v.o.o.o.o.' ' ^ ' t.d.d.e.8 5 5 5 = , ; ; p u s p j.B.B.B.S.S.K.S.p r y y ",
"p y y p A.S.S.D.M.f.M.y.7 3 7 6 < * * * s a u p A.S.G.F.<.o.o.o.=.=.&.=.c.j.V.j.y 5 y 5 % % - ; u u u p g.B.c.B.K.K.P.D.a y y p ",
"y y t p $.8.$.9.x.n.n.n.$.Z Z C 7 0 0 3 q e q e 8.8.8.$.k k l j n D k n k k k f 3 < 2 2 0 3 3 3 C Z Y V Z.S.S.A.9.8.8.9.5 5 5 1 ",
"5 t 7 7 s t r s n.A.Z.A.Z.Z.Z.x.s w w w , : , , i u p p 5 t 5 5 y y p y < < 3 o $ $ # % t p a i 6.r.t.y.S.S.S.S.u 7 7 7 1 & & & ",
"t r 7 t p u u f n.Z.n.n.z.a.x.a.w w 8 w , , , , a p s d y t t y p p p p < 3 6 6 $ $ $ % u i u a 6.6.6.6.A.A.D.V.d u s 8 1 < & & ",
"7 t r t s p u f n.S.S.A.a.a.x.w.w 7 3 0 , , , , i a p p y t y y p p h p 6 3 < 6 $ $ $ $ t t 7 u 4.6.6.w.D.K.D.D.s u u u & & & < ",
"4 7 7 7 8 t u t 3.w.3.e.H.H.J.K.$.Z Z C = = = = 9 4 7 4 u y u y y y t p o o o o 2 9 2 3 Z $.] $.2.2.2.2.Z $.V Z 3 3 < 3 3 3 7 3 ",
"7 4 7 7 7 7 0 0 k B k U _.'.'.`.B.i.x.i.8 7 7 3 2 * o o t y y u t r t 7 O . . O 9 t 7 s c.A.A.M.>.&.&.' 8 3 7 3 % - % % 3 7 7 7 ",
"4 7 4 6 t 0 9 t B n n U )._._._.i.t.a.t.8 3 7 7 2 o 2 2 p t u u t r t t . . . o 7 t 7 u p.M.M.M.:.&.&.&.w w 8 8 % % = = 3 1 8 3 ",
"5 4 t 4 7 7 7 7 B B B U `.'.'.`.x.i.i.t.3 3 3 3 * o o 2 t t t t r r r r O . . . 3 7 7 7 g.A.c.M.<.:.2.=.8 8 8 8 - % % % 8 8 7 7 ",
"* * * < r t t t k B k B m.m.m.m.6.2.6.2.t t 7 r 8 7 0 t k } } ^ k k k h 6 < < < h f a j 6.6.w.6.k f g f w 3 w q 3 = = = 3 3 8 1 ",
"    @ + p y p p k n n B N I I ' &.' ' ' p y p p p p p f r.i.i.i.~ k ^ ~ r r r r &.<.>.>.:.:.:.=.0 7 0 w ; ; ; ; 8 7 7 8 3 7 7 3 ",
"  @ @ + u p y p B n n n ' =.o.#.&.&.&.=.p p p y p u p a 6.r.r.r.~ k D ~ r r r r ~ &.X.&.:.<.5.:.w 0 0 0 9 ; ; ; 3 3 3 7 7 3 3 7 ",
"@     $ y y a y n k n n ' ] ' ' =.&.&.~ p u p y u p u i r.r.r.y.~ ~ D D t r r r ~ &.&.&.<.<.4.=.7 w 7 0 ; ; 9 ; w 7 7 7 3 3 7 3 "
};
