/* XPM */
static char *a1d4db897b8c4027c9db37467df0b08fiWzTrRYdGoqOR3fV[] = {
/* columns rows colors chars-per-pixel */
"64 64 2 1 ",
"  c None",
". c #FFCC00",
/* pixels */
"                           ......                               ",
"                      .................                         ",
"                   .......................                      ",
"                .............................                   ",
"              .................................                 ",
"            ....................................                ",
"           .......................................              ",
"         ..........................................             ",
"        .............................................           ",
"       ...............................................          ",
"      .................................................         ",
"     ...................................................        ",
"    .....................................................       ",
"    .....................................................       ",
"   .......................................................      ",
"  .........................................................     ",
"  .........................................................     ",
" ...........................................................    ",
"  ..........................................................    ",
"    .........................................................   ",
"      .......................................................   ",
"         .....................................................  ",
"           ...................................................  ",
"             .................................................  ",
"               ................................................ ",
"                 .............................................. ",
"                   ............................................ ",
"                     .......................................... ",
"                       ........................................ ",
"                         .......................................",
"                           .....................................",
"                             ...................................",
"                             ...................................",
"                           .....................................",
"                         .......................................",
"                       ........................................ ",
"                     .......................................... ",
"                   ............................................ ",
"                ............................................... ",
"              ................................................. ",
"            ..................................................  ",
"          ....................................................  ",
"        ......................................................  ",
"      .......................................................   ",
"    .........................................................   ",
"  ..........................................................    ",
" ...........................................................    ",
"  .........................................................     ",
"  .........................................................     ",
"   .......................................................      ",
"    .....................................................       ",
"    ....................................................        ",
"     ..................................................         ",
"      .................................................         ",
"       ...............................................          ",
"        ............................................            ",
"          .........................................             ",
"           .......................................              ",
"             ...................................                ",
"              ................................                  ",
"                 ...........................                    ",
"                   .......................                      ",
"                       ...............                          ",
"                                                                "
};
