/* XPM */
static char *a42136edb8934c6096f99a7f1d956e48lnIaH7TomIqxzPaK[] = {
/* columns rows colors chars-per-pixel */
"64 64 2 1 ",
"  c None",
". c #FFCC00",
/* pixels */
"                                                                ",
"                          ...............                       ",
"                      .......................                   ",
"                    ...........................                 ",
"                  ................................              ",
"                ...................................             ",
"              .......................................           ",
"             .........................................          ",
"            ............................................        ",
"          ...............................................       ",
"         .................................................      ",
"         ..................................................     ",
"        ....................................................    ",
"       .....................................................    ",
"      .......................................................   ",
"     .........................................................  ",
"     .........................................................  ",
"    ........................................................... ",
"    ..........................................................  ",
"   .........................................................    ",
"   .......................................................      ",
"  ......................................................        ",
"  ....................................................          ",
"  ..................................................            ",
" .................................................              ",
" ...............................................                ",
" ............................................                   ",
" ..........................................                     ",
" ........................................                       ",
".......................................                         ",
".....................................                           ",
"...................................                             ",
"...................................                             ",
".....................................                           ",
".......................................                         ",
" ........................................                       ",
" ..........................................                     ",
" ............................................                   ",
" ..............................................                 ",
" ................................................               ",
"  .................................................             ",
"  ...................................................           ",
"  .....................................................         ",
"   .......................................................      ",
"   .........................................................    ",
"    ..........................................................  ",
"    ........................................................... ",
"     .........................................................  ",
"     .........................................................  ",
"      .......................................................   ",
"       .....................................................    ",
"       .....................................................    ",
"        ...................................................     ",
"         .................................................      ",
"          ...............................................       ",
"           .............................................        ",
"             ..........................................         ",
"              .......................................           ",
"                ....................................            ",
"                 .................................              ",
"                   .............................                ",
"                      .......................                   ",
"                         .................                      ",
"                               ......                           "
};
