/* XPM */
static char *bf3b400dcd4544fef062137c15cb8609nC9aOTpbWLxoO5am[] = {
/* columns rows colors chars-per-pixel */
"64 64 2 1 ",
"  c None",
". c #FFCC00",
/* pixels */
"                                                                ",
"                 .                            .                 ",
"               ....                          ....               ",
"              .....                          .....              ",
"            ........                        ........            ",
"           .........                        .........           ",
"          ...........                      ...........          ",
"         ............                      ............         ",
"        ..............                     .............        ",
"        ..............                    ...............       ",
"       ................                   ...............       ",
"      .................                  .................      ",
"      ..................                 ..................     ",
"     ...................                ...................     ",
"    .....................               ....................    ",
"    .....................              .....................    ",
"    ......................             ......................   ",
"   .......................            .......................   ",
"   .......................            .......................   ",
"  .........................          .........................  ",
"  .........................          .........................  ",
"  ..........................        ..........................  ",
"  ..........................        ........................... ",
" ............................      ............................ ",
" ............................      ............................ ",
" .............................    ............................. ",
" .............................    ............................. ",
" ..............................  ...............................",
" ..............................  ...............................",
" ...............................................................",
" ...............................................................",
" ...............................................................",
" ...............................................................",
" .............................................................. ",
" .............................................................. ",
" .............................................................. ",
" .............................................................. ",
" .............................................................. ",
"  ............................................................. ",
"  ............................................................  ",
"  ............................................................  ",
"  ............................................................  ",
"   ..........................................................   ",
"   ..........................................................   ",
"    .........................................................   ",
"    ........................................................    ",
"     .......................................................    ",
"     ......................................................     ",
"      ....................................................      ",
"      ....................................................      ",
"       ..................................................       ",
"        ................................................        ",
"         ...............................................        ",
"         ..............................................         ",
"          ............................................          ",
"            .........................................           ",
"             .......................................            ",
"              ....................................              ",
"               ..................................               ",
"                 ..............................                 ",
"                   ..........................                   ",
"                     ......................                     ",
"                        ................                        ",
"                             ......                             "
};
