/* XPM */
static char *_0bbf5af1dd9420d9adafc88bbcd15271SywUJ8MlS85YtyH[] = {
/* columns rows colors chars-per-pixel */
"64 64 28 1 ",
"  c None",
". c #29236C",
"X c #2A247E",
"o c #2A247F",
"O c #2A2480",
"+ c #2A2481",
"@ c #2D2785",
"# c #2C25AB",
"$ c #2B24AF",
"% c #2C25AF",
"& c #2C25B0",
"* c #2E27B0",
"= c #2B24B4",
"- c #2C24B4",
"; c #2C25B4",
": c #2E27B5",
"> c #322CB3",
", c #362FB3",
"< c #332DB7",
"1 c #342DB7",
"2 c #3730B8",
"3 c #3932B9",
"4 c #3C36BA",
"5 c #6F6ACB",
"6 c #736FCD",
"7 c #746FCD",
"8 c #746FCE",
"9 c #7570CE",
/* pixels */
"                                                                ",
"                                                                ",
"                                                                ",
"                                                                ",
"                                                                ",
"      9677777777777777777777777777777777777777777777779976      ",
"     4322222222222222222222222222222222222222222222131312,@     ",
"     <:============================================:==-==$+     ",
"     1:;:=;;;;;;;;;;;;;;;;;;;;;;:;;;;;;;;;;;;;;;;;;;;;;;:$+     ",
"     1:;;=;;;;;;;;;;;;;;;;;;;;;;==;;;;;;;;;;;;;;;;;;;;;;:$+     ",
"     1:;;;;;;;;;;;;;;;;;;;;;;;;;;;;;;;;;;;;;;;;;;;;;;;;;=%O     ",
"     1:=;;;;;;;;;;;;;;;;;;;;;;;;;;;;;;;;;;;;;;;;;;;;;;;;=%O     ",
"     1:=;;;;;;;;;;;;;;;;;;;;;;;;;;;;;;;;;;;;;;;;;;;;;;;;:%+     ",
"     1::;;;;;;;;;;;;;;;;;;;;;;;;;;;;;;;;;;;;;;;;;;;;;;;;=%+     ",
"     1:;;;;;;;;;;;;;;;;;;;;;;;;;;;;;;;;;;;;;;;;;;;;;;;;==%+     ",
"     1:;;;;;;;;;;;;;;;;;;;;;;;;;;;;;;;;;;;;;;;;;;;;;;;;=:%+     ",
"     1::;;;;;;;;;;;;;;;;;;;;;;;;;;;;;;;;;;;;;;;;;;;;;;;;;%+     ",
"     1:=;;;;;;;;;;;;;;;;;;;;;;;;;;;;;;;;;;;;;;;;;;;;;;;;;%+     ",
"     1:=;;;;;;;;;;;;;;;;;;;;;;;;;;;;;;;;;;;;;;;;;;;;;;;;;%+     ",
"     1:;;;;;;;;;;;;;;;;;;;;;;;;;;;;;;;;;;;;;;;;;;;;;;;;;;%+     ",
"     1::;;;;;;;;;;;;;;;;;;;;;;;;;;;;;;;;;;;;;;;;;;;;;;;;:%+     ",
"     1:=;;;;;;;;;;;;;;;;;;;;;;;;;;;;;;;;;;;;;;;;;;;;;;;;=%+     ",
"     1:=;;;;;;;;;;;;;;;;;;;;;;;;;;;;;;;;;;;;;;;;;;;;;;;;=%+     ",
"     1:;;;;;;;;;;;;;;;;;;;;;;;;;;;;;;;;;;;;;;;;;;;;;;;;;;%+     ",
"     1:==;;;;;;;;;;;;;;;;;;;;;;;;;;;;;;;;;;;;;;;;;;;;;;;;%+     ",
"     1::;;;;;;;;;;;;;;;;;;;;;;;;;;;;;;;;;;;;;;;;;;;;;;;;;%+     ",
"     1:;;;;;;;;;;;;;;;;;;;;;;;;;;;;;;;;;;;;;;;;;;;;;;;;;;%+     ",
"     1:;;;;;;;;;;;;;;;;;;;;;;;;;;;;;;;;;;;;;;;;;;;;;;;;;;%+     ",
"     1:;;;;;;;;;;;;;;;;;;;;;;;;;;;;;;;;;;;;;;;;;;;;;;;;;:%+     ",
"     1:=;;;;;;;;;;;;;;;;;;;;;;;;;;;;;;;;;;;;;;;;;;;;;;;;=%+     ",
"     1:=;;;;;;;;;;;;;;;;;;;;;;;;;;;;;;;;;;;;;;;;;;;;;;;;=%+     ",
"     1::;;;;;;;;;;;;;;;;;;;;;;;;;;;;;;;;;;;;;;;;;;;;;;;;;%+     ",
"     1:;;;;;;;;;;;;;;;;;;;;;;;;;;;;;;;;;;;;;;;;;;;;;;;;;;%+     ",
"     1:;;;;;;;;;;;;;;;;;;;;;;;;;;;;;;;;;;;;;;;;;;;;;;;;;;%+     ",
"     1:;;;;;;;;;;;;;;;;;;;;;;;;;;;;;;;;;;;;;;;;;;;;;;;;;;%+     ",
"     1:=;;;;;;;;;;;;;;;;;;;;;;;;;;;;;;;;;;;;;;;;;;;;;;;;;%+     ",
"     1:=;;;;;;;;;;;;;;;;;;;;;;;;;;;;;;;;;;;;;;;;;;;;;;;;:%+     ",
"     1::;;;;;;;;;;;;;;;;;;;;;;;;;;;;;;;;;;;;;;;;;;;;;;;;=%+     ",
"     1:;;;;;;;;;;;;;;;;;;;;;;;;;;;;;;;;;;;;;;;;;;;;;;;;;=%+     ",
"     1:;;;;;;;;;;;;;;;;;;;;;;;;;;;;;;;;;;;;;;;;;;;;;;;;;;%+     ",
"     1::;;;;;;;;;;;;;;;;;;;;;;;;;;;;;;;;;;;;;;;;;;;;;;;;;%+     ",
"     1:=;;;;;;;;;;;;;;;;;;;;;;;;;;;;;;;;;;;;;;;;;;;;;;;;;%+     ",
"     1:=;;;;;;;;;;;;;;;;;;;;;;;;;;;;;;;;;;;;;;;;;;;;;;;;;%+     ",
"     1:;;;;;;;;;;;;;;;;;;;;;;;;;;;;;;;;;;;;;;;;;;;;;;;;;;%+     ",
"     1::;;;;;;;;;;;;;;;;;;;;;;;;;;;;;;;;;;;;;;;;;;;;;;;;:%+     ",
"     1:=;;;;;;;;;;;;;;;;;;;;;;;;;;;;;;;;;;;;;;;;;;;;;;;;=%+     ",
"     1:=;;;;;;;;;;;;;;;;;;;;;;;;;;;;;;;;;;;;;;;;;;;;;;;;=%+     ",
"     1:;;;;;;;;;;;;;;;;;;;;;;;;;;;;;;;;;;;;;;;;;;;;;;;;;;%+     ",
"     1:==;;;;;;;;;;;;;;;;;;;;;;;;;;;;;;;;;;;;;;;;;;;;;;;;%+     ",
"     1::;;;;;;;;;;;;;;;;;;;;;;;;;;;;;;;;;;;;;;;;;;;;;;;;;%+     ",
"     1:;;;;;;;;;;;;;;;;;;;;;;;;;;;;;;;;;;;;;;;;;;;;;;;;;;%+     ",
"     1:;;;;;;;;;;;;;;;;;;;;;;;;;;;;;;;;;;;;;;;;;;;;;;;;;;%+     ",
"     1:;;;;;;;;;;;;;;;;;;;;;;;;;;;;;;;;;;;;;;;;;;;;;;;;;:%+     ",
"     1:=;;;;;;;;;;;;;;;;;;;;;;;;;;;;;;;;;;;;;;;;;;;;;;;;=%+     ",
"     1:=;;;;;;;;;;;;;;;;;;;;;;;;;;;;;;;;;;;;;;;;;;;;;;;;=%+     ",
"     1::;;;;;;;;;;;;;;;;;;;;;;;;;;;;;;;;;;;;;;;;;;;;;;;;;%+     ",
"     1::;;;;;;;;;;;;;;;;;;;;;;;;;;;;;;;;;;;;;;;;;;;;;;;;;%+     ",
"     >%%%%%%%%%%%%%%%%%%%%%;%%%%%%%%%%%%%%%%%%%%%%%;%%%%%#X     ",
"      ++X+++X+X+++X+X+++XX+XX+++X+++X+X+++X+X+++XX+XX++++X.     ",
"                                                                ",
"                                                                ",
"                                                                ",
"                                                                ",
"                                                                "
};
